# xmcd
#
# Track frame offsets:
#	150
#	13302
#	32827
#	49557
#	62592
#	76747
#	90800
#	105900
#	118642
#	134865
#	148685
#	162465
#	173175
#	185567
#
# Disc length: 2705 seconds
#
# Revision: 4
# Processed by: cddbd v1.5.2PL0 Copyright (c) Steve Scherf et al.
# Submitted via: EasyCDDAExtractor 10.0.1.1
#
DISCID=b60a8f0e
DTITLE=Various Artist - Sertanejo - CD 2
DYEAR=1900
DGENRE=Sertanejo
TTITLE0=Chitãozinho and Xororó - Fio De Cabelo
TTITLE1=Cleiton and Camargo - Agenda Rabiscada
TTITLE2=Guilherme and Santiago - Essa Paixao Me Machucou
TTITLE3=Renato Teixeira - Amanheceu, Peguei A Viola
TTITLE4=João Mineiro and Marciano - Ainda Ontem Chorei De Saudade
TTITLE5=Milionário E José Rico - De Longe Também Se Ama
TTITLE6=Gino and Geno - As Águas De São Francisco
TTITLE7=Pedro Bento and Zé Da Estrada - Boneca Cobiçada
TTITLE8=Teodoro and Sampaio - Tô Apaixonado
TTITLE9=Trio Parada Dura - Panela Velha
TTITLE10=Alan and Aladim - Liguei Pra Dizer Que Te Amo
TTITLE11=Tonico and Tinoco - Baile Na Roça
TTITLE12=Zico and Zeca - Pingo D'agua
TTITLE13=Alvarenga and Ranchinho - Drama De Angélica
EXTD=kiroiva@hotmail.com
EXTT0=
EXTT1=
EXTT2=
EXTT3=
EXTT4=
EXTT5=
EXTT6=
EXTT7=
EXTT8=
EXTT9=
EXTT10=
EXTT11=
EXTT12=
EXTT13=
PLAYORDER=
